<svg xmlns="http://www.w3.org/2000/svg" viewBox="0 0 128 128">
  <!-- 背景圆 -->
  <circle cx="64" cy="64" r="60" fill="#2383E2"/>
  <!-- 百度网盘标志 -->
  <path d="M40,64 C40,50.745 50.745,40 64,40 C77.255,40 88,50.745 88,64 C88,77.255 77.255,88 64,88 C50.745,88 40,77.255 40,64 Z M64,48 C55.163,48 48,55.163 48,64 C48,72.837 55.163,80 64,80 C72.837,80 80,72.837 80,64 C80,55.163 72.837,48 64,48 Z"/>
  <!-- 下载箭头 -->
  <path d="M64,32 L64,96 M64,96 L48,80 M64,96 L80,80" stroke="white" stroke-width="8" stroke-linecap="round" stroke-linejoin="round"/>
</svg>